<svg width="1379" height="710" viewBox="0 0 1379 710" fill="none" xmlns="http://www.w3.org/2000/svg">
<ellipse rx="4.94325" ry="4.9114" transform="matrix(-1 0 0 1 449.841 551.105)" fill="#86C9F1" fill-opacity="0.1"/>
<ellipse rx="4.94325" ry="4.9114" transform="matrix(-1 0 0 1 449.841 564.857)" fill="#86C9F1" fill-opacity="0.1"/>
<ellipse rx="4.94325" ry="4.9114" transform="matrix(-1 0 0 1 449.841 537.353)" fill="#86C9F1" fill-opacity="0.1"/>
<ellipse rx="4.94325" ry="4.9114" transform="matrix(-1 0 0 1 449.841 578.609)" fill="#86C9F1" fill-opacity="0.1"/>
<ellipse rx="4.94325" ry="4.9114" transform="matrix(-1 0 0 1 449.841 523.601)" fill="#86C9F1" fill-opacity="0.1"/>
<ellipse rx="4.94325" ry="4.9114" transform="matrix(-1 0 0 1 449.841 592.361)" fill="#86C9F1" fill-opacity="0.1"/>
<ellipse rx="4.94325" ry="4.9114" transform="matrix(-1 0 0 1 449.841 606.113)" fill="#86C9F1" fill-opacity="0.1"/>
<ellipse rx="4.94325" ry="4.9114" transform="matrix(-1 0 0 1 449.841 619.864)" fill="#86C9F1" fill-opacity="0.1"/>
<ellipse rx="4.94325" ry="4.9114" transform="matrix(-1 0 0 1 449.841 633.616)" fill="#86C9F1" fill-opacity="0.1"/>
<ellipse rx="4.94325" ry="4.9114" transform="matrix(-1 0 0 1 436 551.105)" fill="#86C9F1" fill-opacity="0.1"/>
<ellipse rx="4.94325" ry="4.9114" transform="matrix(-1 0 0 1 436 564.857)" fill="#86C9F1" fill-opacity="0.1"/>
<ellipse rx="4.94325" ry="4.9114" transform="matrix(-1 0 0 1 436 537.353)" fill="#86C9F1" fill-opacity="0.1"/>
<ellipse rx="4.94325" ry="4.9114" transform="matrix(-1 0 0 1 436 578.609)" fill="#86C9F1" fill-opacity="0.1"/>
<ellipse rx="4.94325" ry="4.9114" transform="matrix(-1 0 0 1 436 523.601)" fill="#86C9F1" fill-opacity="0.1"/>
<ellipse rx="4.94325" ry="4.9114" transform="matrix(-1 0 0 1 422.159 578.609)" fill="#86C9F1" fill-opacity="0.1"/>
<ellipse rx="4.94325" ry="4.9114" transform="matrix(-1 0 0 1 422.159 551.105)" fill="#86C9F1" fill-opacity="0.1"/>
<ellipse rx="4.94325" ry="4.9114" transform="matrix(-1 0 0 1 422.159 537.646)" fill="#86C9F1" fill-opacity="0.1"/>
<ellipse rx="4.94325" ry="4.9114" transform="matrix(-1 0 0 1 422.159 564.857)" fill="#86C9F1" fill-opacity="0.1"/>
<ellipse rx="4.94325" ry="4.9114" transform="matrix(-1 0 0 1 422.159 592.361)" fill="#86C9F1" fill-opacity="0.1"/>
<ellipse rx="4.94325" ry="4.9114" transform="matrix(-1 0 0 1 422.159 606.113)" fill="#86C9F1" fill-opacity="0.1"/>
<ellipse rx="4.94325" ry="4.9114" transform="matrix(-1 0 0 1 436 592.361)" fill="#86C9F1" fill-opacity="0.1"/>
<ellipse rx="4.94325" ry="4.9114" transform="matrix(-1 0 0 1 436 606.113)" fill="#86C9F1" fill-opacity="0.1"/>
<ellipse rx="4.94325" ry="4.9114" transform="matrix(-1 0 0 1 436 619.864)" fill="#86C9F1" fill-opacity="0.1"/>
<ellipse cx="463.725" cy="551.106" rx="4.94325" ry="4.9115" fill="#86C9F1" fill-opacity="0.1"/>
<ellipse cx="463.725" cy="564.858" rx="4.94325" ry="4.9115" fill="#86C9F1" fill-opacity="0.1"/>
<ellipse cx="463.725" cy="537.354" rx="4.94325" ry="4.9115" fill="#86C9F1" fill-opacity="0.1"/>
<ellipse cx="463.725" cy="578.61" rx="4.94325" ry="4.9115" fill="#86C9F1" fill-opacity="0.1"/>
<ellipse cx="463.725" cy="523.601" rx="4.94325" ry="4.9115" fill="#86C9F1" fill-opacity="0.1"/>
<ellipse cx="463.725" cy="592.362" rx="4.94325" ry="4.9115" fill="#86C9F1" fill-opacity="0.1"/>
<ellipse cx="463.725" cy="606.115" rx="4.94325" ry="4.9115" fill="#86C9F1" fill-opacity="0.1"/>
<ellipse cx="169.422" cy="615.492" rx="3.99667" ry="3.97092" fill="#86C9F1" fill-opacity="0.1"/>
<ellipse cx="169.422" cy="626.611" rx="3.99667" ry="3.97092" fill="#86C9F1" fill-opacity="0.1"/>
<ellipse cx="169.422" cy="604.374" rx="3.99667" ry="3.97092" fill="#86C9F1" fill-opacity="0.1"/>
<ellipse cx="169.422" cy="637.729" rx="3.99667" ry="3.97092" fill="#86C9F1" fill-opacity="0.1"/>
<ellipse cx="169.422" cy="593.255" rx="3.99667" ry="3.97092" fill="#86C9F1" fill-opacity="0.1"/>
<ellipse cx="169.422" cy="648.848" rx="3.99667" ry="3.97092" fill="#86C9F1" fill-opacity="0.1"/>
<ellipse cx="169.422" cy="659.967" rx="3.99667" ry="3.97092" fill="#86C9F1" fill-opacity="0.1"/>
<ellipse cx="169.422" cy="671.085" rx="3.99667" ry="3.97092" fill="#86C9F1" fill-opacity="0.1"/>
<ellipse cx="180.613" cy="615.492" rx="3.99667" ry="3.97092" fill="#86C9F1" fill-opacity="0.1"/>
<ellipse cx="169.422" cy="582.137" rx="3.99667" ry="3.97092" fill="#86C9F1" fill-opacity="0.1"/>
<ellipse cx="180.613" cy="626.611" rx="3.99667" ry="3.97092" fill="#86C9F1" fill-opacity="0.1"/>
<ellipse cx="180.613" cy="604.374" rx="3.99667" ry="3.97092" fill="#86C9F1" fill-opacity="0.1"/>
<ellipse cx="180.613" cy="637.729" rx="3.99667" ry="3.97092" fill="#86C9F1" fill-opacity="0.1"/>
<ellipse cx="180.613" cy="593.255" rx="3.99667" ry="3.97092" fill="#86C9F1" fill-opacity="0.1"/>
<ellipse cx="191.804" cy="637.729" rx="3.99667" ry="3.97092" fill="#86C9F1" fill-opacity="0.1"/>
<ellipse cx="191.804" cy="615.492" rx="3.99667" ry="3.97092" fill="#86C9F1" fill-opacity="0.1"/>
<ellipse cx="191.804" cy="626.611" rx="3.99667" ry="3.97092" fill="#86C9F1" fill-opacity="0.1"/>
<ellipse cx="191.804" cy="604.374" rx="3.99667" ry="3.97092" fill="#86C9F1" fill-opacity="0.1"/>
<ellipse cx="191.804" cy="648.848" rx="3.99667" ry="3.97092" fill="#86C9F1" fill-opacity="0.1"/>
<ellipse cx="191.804" cy="659.967" rx="3.99667" ry="3.97092" fill="#86C9F1" fill-opacity="0.1"/>
<ellipse cx="180.613" cy="648.848" rx="3.99667" ry="3.97092" fill="#86C9F1" fill-opacity="0.1"/>
<ellipse cx="180.613" cy="659.967" rx="3.99667" ry="3.97092" fill="#86C9F1" fill-opacity="0.1"/>
<ellipse cx="180.613" cy="671.085" rx="3.99667" ry="3.97092" fill="#86C9F1" fill-opacity="0.1"/>
<ellipse cx="811.288" cy="529.557" rx="3.99667" ry="3.97092" fill="#86C9F1" fill-opacity="0.1"/>
<ellipse cx="811.288" cy="540.676" rx="3.99667" ry="3.97092" fill="#86C9F1" fill-opacity="0.1"/>
<ellipse cx="811.288" cy="551.795" rx="3.99667" ry="3.97092" fill="#86C9F1" fill-opacity="0.1"/>
<ellipse cx="811.288" cy="562.913" rx="3.99667" ry="3.97092" fill="#86C9F1" fill-opacity="0.1"/>
<ellipse cx="811.288" cy="574.032" rx="3.99667" ry="3.97092" fill="#86C9F1" fill-opacity="0.1"/>
<ellipse cx="811.288" cy="585.15" rx="3.99667" ry="3.97092" fill="#86C9F1" fill-opacity="0.1"/>
<ellipse cx="169.422" cy="682.204" rx="3.99667" ry="3.97092" fill="#86C9F1" fill-opacity="0.1"/>
<ellipse cx="811.288" cy="518.439" rx="3.99667" ry="3.97092" fill="#86C9F1" fill-opacity="0.1"/>
<ellipse cx="1224.8" cy="576.501" rx="4.8905" ry="4.85898" transform="rotate(-180 1224.8 576.501)" fill="#86C9F1" fill-opacity="0.1"/>
<ellipse cx="1224.8" cy="562.896" rx="4.8905" ry="4.85898" transform="rotate(-180 1224.8 562.896)" fill="#86C9F1" fill-opacity="0.1"/>
<ellipse cx="1224.8" cy="590.106" rx="4.8905" ry="4.85898" transform="rotate(-180 1224.8 590.106)" fill="#86C9F1" fill-opacity="0.1"/>
<ellipse cx="1224.8" cy="549.291" rx="4.8905" ry="4.85898" transform="rotate(-180 1224.8 549.291)" fill="#86C9F1" fill-opacity="0.1"/>
<ellipse cx="1224.8" cy="603.712" rx="4.8905" ry="4.85898" transform="rotate(-180 1224.8 603.712)" fill="#86C9F1" fill-opacity="0.1"/>
<ellipse cx="1224.8" cy="535.686" rx="4.8905" ry="4.85898" transform="rotate(-180 1224.8 535.686)" fill="#86C9F1" fill-opacity="0.1"/>
<ellipse cx="1224.8" cy="522.081" rx="4.8905" ry="4.85898" transform="rotate(-180 1224.8 522.081)" fill="#86C9F1" fill-opacity="0.1"/>
<ellipse cx="1224.8" cy="508.475" rx="4.8905" ry="4.85898" transform="rotate(-180 1224.8 508.475)" fill="#86C9F1" fill-opacity="0.1"/>
<ellipse cx="1224.8" cy="494.87" rx="4.8905" ry="4.85898" transform="rotate(-180 1224.8 494.87)" fill="#86C9F1" fill-opacity="0.1"/>
<ellipse cx="1211.11" cy="576.501" rx="4.8905" ry="4.85898" transform="rotate(-180 1211.11 576.501)" fill="#86C9F1" fill-opacity="0.1"/>
<ellipse cx="1211.11" cy="562.896" rx="4.8905" ry="4.85898" transform="rotate(-180 1211.11 562.896)" fill="#86C9F1" fill-opacity="0.1"/>
<ellipse cx="1211.11" cy="549.291" rx="4.8905" ry="4.85898" transform="rotate(-180 1211.11 549.291)" fill="#86C9F1" fill-opacity="0.1"/>
<ellipse cx="1197.41" cy="549.291" rx="4.8905" ry="4.85898" transform="rotate(-180 1197.41 549.291)" fill="#86C9F1" fill-opacity="0.1"/>
<ellipse cx="1197.41" cy="562.896" rx="4.8905" ry="4.85898" transform="rotate(-180 1197.41 562.896)" fill="#86C9F1" fill-opacity="0.1"/>
<ellipse cx="1197.41" cy="535.686" rx="4.8905" ry="4.85898" transform="rotate(-180 1197.41 535.686)" fill="#86C9F1" fill-opacity="0.1"/>
<ellipse cx="1197.41" cy="522.081" rx="4.8905" ry="4.85898" transform="rotate(-180 1197.41 522.081)" fill="#86C9F1" fill-opacity="0.1"/>
<ellipse cx="1211.11" cy="535.686" rx="4.8905" ry="4.85898" transform="rotate(-180 1211.11 535.686)" fill="#86C9F1" fill-opacity="0.1"/>
<ellipse cx="1211.11" cy="522.081" rx="4.8905" ry="4.85898" transform="rotate(-180 1211.11 522.081)" fill="#86C9F1" fill-opacity="0.1"/>
<ellipse cx="1211.11" cy="508.475" rx="4.8905" ry="4.85898" transform="rotate(-180 1211.11 508.475)" fill="#86C9F1" fill-opacity="0.1"/>
<ellipse rx="4.8905" ry="4.85908" transform="matrix(1 0 0 -1 1238.54 576.5)" fill="#86C9F1" fill-opacity="0.1"/>
<ellipse rx="4.8905" ry="4.85908" transform="matrix(1 0 0 -1 1238.54 562.895)" fill="#86C9F1" fill-opacity="0.1"/>
<ellipse rx="4.8905" ry="4.85908" transform="matrix(1 0 0 -1 1238.54 590.106)" fill="#86C9F1" fill-opacity="0.1"/>
<ellipse rx="4.8905" ry="4.85908" transform="matrix(1 0 0 -1 1238.54 549.289)" fill="#86C9F1" fill-opacity="0.1"/>
<ellipse rx="4.8905" ry="4.85908" transform="matrix(1 0 0 -1 1238.54 603.711)" fill="#86C9F1" fill-opacity="0.1"/>
<ellipse rx="4.8905" ry="4.85908" transform="matrix(1 0 0 -1 1238.54 535.684)" fill="#86C9F1" fill-opacity="0.1"/>
<ellipse rx="4.8905" ry="4.85908" transform="matrix(1 0 0 -1 1238.54 522.079)" fill="#86C9F1" fill-opacity="0.1"/>
<ellipse rx="3.95402" ry="3.92854" transform="matrix(1 0 0 -1 821.637 573.918)" fill="#86C9F1" fill-opacity="0.1"/>
<ellipse rx="3.95402" ry="3.92854" transform="matrix(1 0 0 -1 821.637 562.919)" fill="#86C9F1" fill-opacity="0.1"/>
<ellipse rx="3.95402" ry="3.92854" transform="matrix(1 0 0 -1 821.637 584.918)" fill="#86C9F1" fill-opacity="0.1"/>
<ellipse rx="3.95402" ry="3.92854" transform="matrix(1 0 0 -1 821.637 551.919)" fill="#86C9F1" fill-opacity="0.1"/>
<ellipse rx="3.95402" ry="3.92854" transform="matrix(1 0 0 -1 821.637 595.918)" fill="#86C9F1" fill-opacity="0.1"/>
<ellipse rx="3.95402" ry="3.92854" transform="matrix(1 0 0 -1 821.637 540.919)" fill="#86C9F1" fill-opacity="0.1"/>
<ellipse rx="3.95402" ry="3.92854" transform="matrix(1 0 0 -1 821.637 529.919)" fill="#86C9F1" fill-opacity="0.1"/>
<ellipse rx="3.95402" ry="3.92854" transform="matrix(1 0 0 -1 821.637 518.919)" fill="#86C9F1" fill-opacity="0.1"/>
<ellipse rx="3.95402" ry="3.92854" transform="matrix(1 0 0 -1 832.708 573.918)" fill="#86C9F1" fill-opacity="0.1"/>
<ellipse rx="3.95402" ry="3.92854" transform="matrix(1 0 0 -1 821.637 606.918)" fill="#86C9F1" fill-opacity="0.1"/>
<ellipse rx="3.95402" ry="3.92854" transform="matrix(1 0 0 -1 832.708 562.919)" fill="#86C9F1" fill-opacity="0.1"/>
<ellipse rx="3.95402" ry="3.92854" transform="matrix(1 0 0 -1 832.708 584.918)" fill="#86C9F1" fill-opacity="0.1"/>
<ellipse rx="3.95402" ry="3.92854" transform="matrix(1 0 0 -1 832.708 551.919)" fill="#86C9F1" fill-opacity="0.1"/>
<ellipse rx="3.95402" ry="3.92854" transform="matrix(1 0 0 -1 832.708 595.918)" fill="#86C9F1" fill-opacity="0.1"/>
<ellipse rx="3.95402" ry="3.92854" transform="matrix(1 0 0 -1 843.779 551.919)" fill="#86C9F1" fill-opacity="0.1"/>
<ellipse rx="3.95402" ry="3.92854" transform="matrix(1 0 0 -1 843.779 573.918)" fill="#86C9F1" fill-opacity="0.1"/>
<ellipse rx="3.95402" ry="3.92854" transform="matrix(1 0 0 -1 843.779 562.919)" fill="#86C9F1" fill-opacity="0.1"/>
<ellipse rx="3.95402" ry="3.92854" transform="matrix(1 0 0 -1 843.779 584.918)" fill="#86C9F1" fill-opacity="0.1"/>
<ellipse rx="3.95402" ry="3.92854" transform="matrix(1 0 0 -1 843.779 540.919)" fill="#86C9F1" fill-opacity="0.1"/>
<ellipse rx="3.95402" ry="3.92854" transform="matrix(1 0 0 -1 843.779 529.919)" fill="#86C9F1" fill-opacity="0.1"/>
<ellipse rx="3.95402" ry="3.92854" transform="matrix(1 0 0 -1 832.708 540.919)" fill="#86C9F1" fill-opacity="0.1"/>
<ellipse rx="3.95402" ry="3.92854" transform="matrix(1 0 0 -1 832.708 529.919)" fill="#86C9F1" fill-opacity="0.1"/>
<ellipse rx="3.95402" ry="3.92854" transform="matrix(1 0 0 -1 832.708 518.919)" fill="#86C9F1" fill-opacity="0.1"/>
<ellipse rx="3.95402" ry="3.92854" transform="matrix(1 0 0 -1 821.637 507.919)" fill="#86C9F1" fill-opacity="0.1"/>
<ellipse rx="4.94325" ry="4.9114" transform="matrix(-1 0 0 1 449.841 97.6261)" fill="#86C9F1" fill-opacity="0.1"/>
<ellipse rx="4.94325" ry="4.9114" transform="matrix(-1 0 0 1 449.841 111.378)" fill="#86C9F1" fill-opacity="0.1"/>
<ellipse rx="4.94325" ry="4.9114" transform="matrix(-1 0 0 1 449.841 83.8742)" fill="#86C9F1" fill-opacity="0.1"/>
<ellipse rx="4.94325" ry="4.9114" transform="matrix(-1 0 0 1 449.841 125.13)" fill="#86C9F1" fill-opacity="0.1"/>
<ellipse rx="4.94325" ry="4.9114" transform="matrix(-1 0 0 1 449.841 70.1223)" fill="#86C9F1" fill-opacity="0.1"/>
<ellipse rx="4.94325" ry="4.9114" transform="matrix(-1 0 0 1 449.841 138.882)" fill="#86C9F1" fill-opacity="0.1"/>
<ellipse rx="4.94325" ry="4.9114" transform="matrix(-1 0 0 1 449.841 152.634)" fill="#86C9F1" fill-opacity="0.1"/>
<ellipse rx="4.94325" ry="4.9114" transform="matrix(-1 0 0 1 449.841 166.386)" fill="#86C9F1" fill-opacity="0.1"/>
<ellipse rx="4.94325" ry="4.9114" transform="matrix(-1 0 0 1 449.841 180.138)" fill="#86C9F1" fill-opacity="0.1"/>
<ellipse rx="4.94325" ry="4.9114" transform="matrix(-1 0 0 1 436 97.6261)" fill="#86C9F1" fill-opacity="0.1"/>
<ellipse rx="4.94325" ry="4.9114" transform="matrix(-1 0 0 1 436 111.378)" fill="#86C9F1" fill-opacity="0.1"/>
<ellipse rx="4.94325" ry="4.9114" transform="matrix(-1 0 0 1 436 83.8742)" fill="#86C9F1" fill-opacity="0.1"/>
<ellipse rx="4.94325" ry="4.9114" transform="matrix(-1 0 0 1 436 125.13)" fill="#86C9F1" fill-opacity="0.1"/>
<ellipse rx="4.94325" ry="4.9114" transform="matrix(-1 0 0 1 436 70.1223)" fill="#86C9F1" fill-opacity="0.1"/>
<ellipse rx="4.94325" ry="4.9114" transform="matrix(-1 0 0 1 422.159 125.13)" fill="#86C9F1" fill-opacity="0.1"/>
<ellipse rx="4.94325" ry="4.9114" transform="matrix(-1 0 0 1 422.159 97.6261)" fill="#86C9F1" fill-opacity="0.1"/>
<ellipse rx="4.94325" ry="4.9114" transform="matrix(-1 0 0 1 422.159 84.1667)" fill="#86C9F1" fill-opacity="0.1"/>
<ellipse rx="4.94325" ry="4.9114" transform="matrix(-1 0 0 1 422.159 111.378)" fill="#86C9F1" fill-opacity="0.1"/>
<ellipse rx="4.94325" ry="4.9114" transform="matrix(-1 0 0 1 422.159 138.882)" fill="#86C9F1" fill-opacity="0.1"/>
<ellipse rx="4.94325" ry="4.9114" transform="matrix(-1 0 0 1 422.159 152.634)" fill="#86C9F1" fill-opacity="0.1"/>
<ellipse rx="4.94325" ry="4.9114" transform="matrix(-1 0 0 1 436 138.882)" fill="#86C9F1" fill-opacity="0.1"/>
<ellipse rx="4.94325" ry="4.9114" transform="matrix(-1 0 0 1 436 152.634)" fill="#86C9F1" fill-opacity="0.1"/>
<ellipse rx="4.94325" ry="4.9114" transform="matrix(-1 0 0 1 436 166.386)" fill="#86C9F1" fill-opacity="0.1"/>
<ellipse cx="463.725" cy="97.627" rx="4.94325" ry="4.9115" fill="#86C9F1" fill-opacity="0.1"/>
<ellipse cx="463.725" cy="111.379" rx="4.94325" ry="4.9115" fill="#86C9F1" fill-opacity="0.1"/>
<ellipse cx="463.725" cy="83.8748" rx="4.94325" ry="4.9115" fill="#86C9F1" fill-opacity="0.1"/>
<ellipse cx="463.725" cy="125.131" rx="4.94325" ry="4.9115" fill="#86C9F1" fill-opacity="0.1"/>
<ellipse cx="463.725" cy="70.1227" rx="4.94325" ry="4.9115" fill="#86C9F1" fill-opacity="0.1"/>
<ellipse cx="463.725" cy="138.884" rx="4.94325" ry="4.9115" fill="#86C9F1" fill-opacity="0.1"/>
<ellipse cx="463.725" cy="152.636" rx="4.94325" ry="4.9115" fill="#86C9F1" fill-opacity="0.1"/>
<ellipse cx="42.3281" cy="296.862" rx="3.99667" ry="3.97092" fill="#86C9F1" fill-opacity="0.1"/>
<ellipse cx="42.3281" cy="307.98" rx="3.99667" ry="3.97092" fill="#86C9F1" fill-opacity="0.1"/>
<ellipse cx="42.3281" cy="285.743" rx="3.99667" ry="3.97092" fill="#86C9F1" fill-opacity="0.1"/>
<ellipse cx="42.3281" cy="319.099" rx="3.99667" ry="3.97092" fill="#86C9F1" fill-opacity="0.1"/>
<ellipse cx="42.3281" cy="274.624" rx="3.99667" ry="3.97092" fill="#86C9F1" fill-opacity="0.1"/>
<ellipse cx="42.3281" cy="330.217" rx="3.99667" ry="3.97092" fill="#86C9F1" fill-opacity="0.1"/>
<ellipse cx="42.3281" cy="341.336" rx="3.99667" ry="3.97092" fill="#86C9F1" fill-opacity="0.1"/>
<ellipse cx="42.3281" cy="352.454" rx="3.99667" ry="3.97092" fill="#86C9F1" fill-opacity="0.1"/>
<ellipse cx="53.5189" cy="296.862" rx="3.99667" ry="3.97092" fill="#86C9F1" fill-opacity="0.1"/>
<ellipse cx="42.3281" cy="263.506" rx="3.99667" ry="3.97092" fill="#86C9F1" fill-opacity="0.1"/>
<ellipse cx="53.5189" cy="307.98" rx="3.99667" ry="3.97092" fill="#86C9F1" fill-opacity="0.1"/>
<ellipse cx="53.5189" cy="285.743" rx="3.99667" ry="3.97092" fill="#86C9F1" fill-opacity="0.1"/>
<ellipse cx="53.5189" cy="319.099" rx="3.99667" ry="3.97092" fill="#86C9F1" fill-opacity="0.1"/>
<ellipse cx="53.5189" cy="274.624" rx="3.99667" ry="3.97092" fill="#86C9F1" fill-opacity="0.1"/>
<ellipse cx="64.7096" cy="319.099" rx="3.99667" ry="3.97092" fill="#86C9F1" fill-opacity="0.1"/>
<ellipse cx="64.7096" cy="296.862" rx="3.99667" ry="3.97092" fill="#86C9F1" fill-opacity="0.1"/>
<ellipse cx="64.7096" cy="307.98" rx="3.99667" ry="3.97092" fill="#86C9F1" fill-opacity="0.1"/>
<ellipse cx="64.7096" cy="285.743" rx="3.99667" ry="3.97092" fill="#86C9F1" fill-opacity="0.1"/>
<ellipse cx="64.7096" cy="330.217" rx="3.99667" ry="3.97092" fill="#86C9F1" fill-opacity="0.1"/>
<ellipse cx="64.7096" cy="341.336" rx="3.99667" ry="3.97092" fill="#86C9F1" fill-opacity="0.1"/>
<ellipse cx="53.5189" cy="330.217" rx="3.99667" ry="3.97092" fill="#86C9F1" fill-opacity="0.1"/>
<ellipse cx="53.5189" cy="341.336" rx="3.99667" ry="3.97092" fill="#86C9F1" fill-opacity="0.1"/>
<ellipse cx="53.5189" cy="352.454" rx="3.99667" ry="3.97092" fill="#86C9F1" fill-opacity="0.1"/>
<ellipse cx="811.288" cy="76.0786" rx="3.99667" ry="3.97092" fill="#86C9F1" fill-opacity="0.1"/>
<ellipse cx="811.288" cy="87.1972" rx="3.99667" ry="3.97092" fill="#86C9F1" fill-opacity="0.1"/>
<ellipse cx="811.288" cy="98.3158" rx="3.99667" ry="3.97092" fill="#86C9F1" fill-opacity="0.1"/>
<ellipse cx="811.288" cy="109.434" rx="3.99667" ry="3.97092" fill="#86C9F1" fill-opacity="0.1"/>
<ellipse cx="811.288" cy="120.553" rx="3.99667" ry="3.97092" fill="#86C9F1" fill-opacity="0.1"/>
<ellipse cx="811.288" cy="131.672" rx="3.99667" ry="3.97092" fill="#86C9F1" fill-opacity="0.1"/>
<ellipse cx="42.3281" cy="363.573" rx="3.99667" ry="3.97092" fill="#86C9F1" fill-opacity="0.1"/>
<ellipse cx="811.288" cy="64.9601" rx="3.99667" ry="3.97092" fill="#86C9F1" fill-opacity="0.1"/>
<ellipse cx="1224.8" cy="309.692" rx="4.8905" ry="4.85898" transform="rotate(-180 1224.8 309.692)" fill="#86C9F1" fill-opacity="0.1"/>
<ellipse cx="1224.8" cy="296.087" rx="4.8905" ry="4.85898" transform="rotate(-180 1224.8 296.087)" fill="#86C9F1" fill-opacity="0.1"/>
<ellipse cx="1224.8" cy="323.297" rx="4.8905" ry="4.85898" transform="rotate(-180 1224.8 323.297)" fill="#86C9F1" fill-opacity="0.1"/>
<ellipse cx="1224.8" cy="282.482" rx="4.8905" ry="4.85898" transform="rotate(-180 1224.8 282.482)" fill="#86C9F1" fill-opacity="0.1"/>
<ellipse cx="1224.8" cy="336.902" rx="4.8905" ry="4.85898" transform="rotate(-180 1224.8 336.902)" fill="#86C9F1" fill-opacity="0.1"/>
<ellipse cx="1224.8" cy="268.877" rx="4.8905" ry="4.85898" transform="rotate(-180 1224.8 268.877)" fill="#86C9F1" fill-opacity="0.1"/>
<ellipse cx="1224.8" cy="255.271" rx="4.8905" ry="4.85898" transform="rotate(-180 1224.8 255.271)" fill="#86C9F1" fill-opacity="0.1"/>
<ellipse cx="1224.8" cy="241.666" rx="4.8905" ry="4.85898" transform="rotate(-180 1224.8 241.666)" fill="#86C9F1" fill-opacity="0.1"/>
<ellipse cx="1224.8" cy="228.061" rx="4.8905" ry="4.85898" transform="rotate(-180 1224.8 228.061)" fill="#86C9F1" fill-opacity="0.1"/>
<ellipse cx="1211.11" cy="309.692" rx="4.8905" ry="4.85898" transform="rotate(-180 1211.11 309.692)" fill="#86C9F1" fill-opacity="0.1"/>
<ellipse cx="1211.11" cy="296.087" rx="4.8905" ry="4.85898" transform="rotate(-180 1211.11 296.087)" fill="#86C9F1" fill-opacity="0.1"/>
<ellipse cx="1211.11" cy="282.482" rx="4.8905" ry="4.85898" transform="rotate(-180 1211.11 282.482)" fill="#86C9F1" fill-opacity="0.1"/>
<ellipse cx="1197.41" cy="282.482" rx="4.8905" ry="4.85898" transform="rotate(-180 1197.41 282.482)" fill="#86C9F1" fill-opacity="0.1"/>
<ellipse cx="1197.41" cy="296.087" rx="4.8905" ry="4.85898" transform="rotate(-180 1197.41 296.087)" fill="#86C9F1" fill-opacity="0.1"/>
<ellipse cx="1197.41" cy="268.877" rx="4.8905" ry="4.85898" transform="rotate(-180 1197.41 268.877)" fill="#86C9F1" fill-opacity="0.1"/>
<ellipse cx="1197.41" cy="255.271" rx="4.8905" ry="4.85898" transform="rotate(-180 1197.41 255.271)" fill="#86C9F1" fill-opacity="0.1"/>
<ellipse cx="1211.11" cy="268.877" rx="4.8905" ry="4.85898" transform="rotate(-180 1211.11 268.877)" fill="#86C9F1" fill-opacity="0.1"/>
<ellipse cx="1211.11" cy="255.271" rx="4.8905" ry="4.85898" transform="rotate(-180 1211.11 255.271)" fill="#86C9F1" fill-opacity="0.1"/>
<ellipse cx="1211.11" cy="241.666" rx="4.8905" ry="4.85898" transform="rotate(-180 1211.11 241.666)" fill="#86C9F1" fill-opacity="0.1"/>
<ellipse rx="4.8905" ry="4.85908" transform="matrix(1 0 0 -1 1238.54 309.691)" fill="#86C9F1" fill-opacity="0.1"/>
<ellipse rx="4.8905" ry="4.85908" transform="matrix(1 0 0 -1 1238.54 296.086)" fill="#86C9F1" fill-opacity="0.1"/>
<ellipse rx="4.8905" ry="4.85908" transform="matrix(1 0 0 -1 1238.54 323.297)" fill="#86C9F1" fill-opacity="0.1"/>
<ellipse rx="4.8905" ry="4.85908" transform="matrix(1 0 0 -1 1238.54 282.48)" fill="#86C9F1" fill-opacity="0.1"/>
<ellipse rx="4.8905" ry="4.85908" transform="matrix(1 0 0 -1 1238.54 336.902)" fill="#86C9F1" fill-opacity="0.1"/>
<ellipse rx="4.8905" ry="4.85908" transform="matrix(1 0 0 -1 1238.54 268.875)" fill="#86C9F1" fill-opacity="0.1"/>
<ellipse rx="4.8905" ry="4.85908" transform="matrix(1 0 0 -1 1238.54 255.269)" fill="#86C9F1" fill-opacity="0.1"/>
<ellipse rx="3.95402" ry="3.92854" transform="matrix(1 0 0 -1 821.637 120.44)" fill="#86C9F1" fill-opacity="0.1"/>
<ellipse rx="3.95402" ry="3.92854" transform="matrix(1 0 0 -1 821.637 109.44)" fill="#86C9F1" fill-opacity="0.1"/>
<ellipse rx="3.95402" ry="3.92854" transform="matrix(1 0 0 -1 821.637 131.44)" fill="#86C9F1" fill-opacity="0.1"/>
<ellipse rx="3.95402" ry="3.92854" transform="matrix(1 0 0 -1 821.637 98.4398)" fill="#86C9F1" fill-opacity="0.1"/>
<ellipse rx="3.95402" ry="3.92854" transform="matrix(1 0 0 -1 821.637 142.44)" fill="#86C9F1" fill-opacity="0.1"/>
<ellipse rx="3.95402" ry="3.92854" transform="matrix(1 0 0 -1 821.637 87.4399)" fill="#86C9F1" fill-opacity="0.1"/>
<ellipse rx="3.95402" ry="3.92854" transform="matrix(1 0 0 -1 821.637 76.4401)" fill="#86C9F1" fill-opacity="0.1"/>
<ellipse rx="3.95402" ry="3.92854" transform="matrix(1 0 0 -1 821.637 65.4402)" fill="#86C9F1" fill-opacity="0.1"/>
<ellipse rx="3.95402" ry="3.92854" transform="matrix(1 0 0 -1 832.708 120.44)" fill="#86C9F1" fill-opacity="0.1"/>
<ellipse rx="3.95402" ry="3.92854" transform="matrix(1 0 0 -1 821.637 153.439)" fill="#86C9F1" fill-opacity="0.1"/>
<ellipse rx="3.95402" ry="3.92854" transform="matrix(1 0 0 -1 832.708 109.44)" fill="#86C9F1" fill-opacity="0.1"/>
<ellipse rx="3.95402" ry="3.92854" transform="matrix(1 0 0 -1 832.708 131.44)" fill="#86C9F1" fill-opacity="0.1"/>
<ellipse rx="3.95402" ry="3.92854" transform="matrix(1 0 0 -1 832.708 98.4398)" fill="#86C9F1" fill-opacity="0.1"/>
<ellipse rx="3.95402" ry="3.92854" transform="matrix(1 0 0 -1 832.708 142.44)" fill="#86C9F1" fill-opacity="0.1"/>
<ellipse rx="3.95402" ry="3.92854" transform="matrix(1 0 0 -1 843.779 98.4398)" fill="#86C9F1" fill-opacity="0.1"/>
<ellipse rx="3.95402" ry="3.92854" transform="matrix(1 0 0 -1 843.779 120.44)" fill="#86C9F1" fill-opacity="0.1"/>
<ellipse rx="3.95402" ry="3.92854" transform="matrix(1 0 0 -1 843.779 109.44)" fill="#86C9F1" fill-opacity="0.1"/>
<ellipse rx="3.95402" ry="3.92854" transform="matrix(1 0 0 -1 843.779 131.44)" fill="#86C9F1" fill-opacity="0.1"/>
<ellipse rx="3.95402" ry="3.92854" transform="matrix(1 0 0 -1 843.779 87.4399)" fill="#86C9F1" fill-opacity="0.1"/>
<ellipse rx="3.95402" ry="3.92854" transform="matrix(1 0 0 -1 843.779 76.4401)" fill="#86C9F1" fill-opacity="0.1"/>
<ellipse rx="3.95402" ry="3.92854" transform="matrix(1 0 0 -1 832.708 87.4399)" fill="#86C9F1" fill-opacity="0.1"/>
<ellipse rx="3.95402" ry="3.92854" transform="matrix(1 0 0 -1 832.708 76.4401)" fill="#86C9F1" fill-opacity="0.1"/>
<ellipse rx="3.95402" ry="3.92854" transform="matrix(1 0 0 -1 832.708 65.4402)" fill="#86C9F1" fill-opacity="0.1"/>
<ellipse rx="3.95402" ry="3.92854" transform="matrix(1 0 0 -1 821.637 54.4402)" fill="#86C9F1" fill-opacity="0.1"/>
<path d="M693.582 649.642C693.582 674.922 672.947 695.47 647.425 695.47C621.902 695.47 601.267 674.922 601.267 649.642C601.267 624.363 621.902 603.814 647.425 603.814C672.947 603.814 693.582 624.363 693.582 649.642Z" stroke="#86C9F1" stroke-opacity="0.1" stroke-width="10"/>
<path d="M122.755 649.245C122.755 678.611 98.7813 702.5 69.1059 702.5C39.4305 702.5 15.4568 678.611 15.4568 649.245C15.4568 619.879 39.4305 595.99 69.1059 595.99C98.7813 595.99 122.755 619.879 122.755 649.245Z" stroke="#86C9F1" stroke-opacity="0.1" stroke-width="15"/>
<path d="M1468.98 487.49C1468.98 442.55 1432.3 406.063 1386.99 406.063C1341.68 406.063 1305 442.55 1305 487.49C1305 532.431 1341.68 568.918 1386.99 568.918C1432.3 568.918 1468.98 532.431 1468.98 487.49Z" stroke="#86C9F1" stroke-opacity="0.1" stroke-width="10"/>
<path d="M762.121 376.28C762.121 418.944 727.293 453.64 684.194 453.64C641.095 453.64 606.267 418.944 606.267 376.28C606.267 333.616 641.095 298.92 684.194 298.92C727.293 298.92 762.121 333.616 762.121 376.28Z" stroke="#86C9F1" stroke-opacity="0.1" stroke-width="20"/>
<path d="M70.7982 86.169C70.7982 115.535 46.8245 139.424 17.1491 139.424C-12.5263 139.424 -36.5 115.535 -36.5 86.169C-36.5 56.8027 -12.5263 32.9139 17.1491 32.9139C46.8245 32.9139 70.7982 56.8027 70.7982 86.169Z" stroke="#86C9F1" stroke-opacity="0.1" stroke-width="15"/>
<path d="M1489.98 86.4279C1489.98 44.2788 1455.57 10 1412.99 10C1370.41 10 1336 44.2788 1336 86.4279C1336 128.577 1370.41 162.856 1412.99 162.856C1455.57 162.856 1489.98 128.577 1489.98 86.4279Z" stroke="#86C9F1" stroke-opacity="0.1" stroke-width="20"/>
</svg>
