<?xml version="1.0" encoding="UTF-8"?>
<svg xmlns="http://www.w3.org/2000/svg" width="26" height="27" viewBox="0 0 26 27" fill="none">
	<path d="M13.6088 6.73568C15.2884 6.73568 16.65 5.37409 16.65 3.6945C16.65 2.0149 15.2884 0.65332 13.6088 0.65332C11.9292 0.65332 10.5676 2.0149 10.5676 3.6945C10.5676 5.37409 11.9292 6.73568 13.6088 6.73568Z" fill="white" />
	<path opacity="0.6" d="M13.6089 26.6544C14.6166 26.6544 15.4334 25.8375 15.4334 24.8299C15.4334 23.8222 14.6166 23.0054 13.6089 23.0054C12.6013 23.0054 11.7844 23.8222 11.7844 24.8299C11.7844 25.8375 12.6013 26.6544 13.6089 26.6544Z" fill="white" />
	<path opacity="0.9" d="M6.13618 9.52627C7.64793 9.52627 8.87344 8.30076 8.87344 6.78902C8.87344 5.27727 7.64793 4.05176 6.13618 4.05176C4.62444 4.05176 3.39893 5.27727 3.39893 6.78902C3.39893 8.30076 4.62444 9.52627 6.13618 9.52627Z" fill="white" />
	<path opacity="0.5" d="M21.0816 23.2541C21.9214 23.2541 22.6022 22.5733 22.6022 21.7335C22.6022 20.8937 21.9214 20.2129 21.0816 20.2129C20.2418 20.2129 19.561 20.8937 19.561 21.7335C19.561 22.5733 20.2418 23.2541 21.0816 23.2541Z" fill="white" />
	<path opacity="0.8" d="M3.04075 16.695C4.3841 16.695 5.4731 15.606 5.4731 14.2627C5.4731 12.9193 4.3841 11.8303 3.04075 11.8303C1.6974 11.8303 0.608398 12.9193 0.608398 14.2627C0.608398 15.606 1.6974 16.695 3.04075 16.695Z" fill="white" />
	<path opacity="0.3" d="M24.1761 15.4773C24.8475 15.4773 25.3918 14.933 25.3918 14.2616C25.3918 13.5902 24.8475 13.0459 24.1761 13.0459C23.5047 13.0459 22.9604 13.5902 22.9604 14.2616C22.9604 14.933 23.5047 15.4773 24.1761 15.4773Z" fill="white" />
	<path opacity="0.7" d="M4.63144 20.2306C3.79961 21.0624 3.79961 22.4084 4.63144 23.2402C5.46229 24.072 6.8102 24.072 7.64105 23.2402C8.47288 22.4084 8.47288 21.0624 7.64105 20.2306C6.8102 19.3978 5.46328 19.3899 4.63144 20.2306Z" fill="white" />
	<path opacity="0.1" d="M21.0807 7.70072C21.5843 7.70072 21.9925 7.29251 21.9925 6.78896C21.9925 6.28541 21.5843 5.8772 21.0807 5.8772C20.5772 5.8772 20.1689 6.28541 20.1689 6.78896C20.1689 7.29251 20.5772 7.70072 21.0807 7.70072Z" fill="white" />
</svg>
